<svg id="Layer_1" data-name="Layer 1" xmlns="http://www.w3.org/2000/svg" viewBox="0 0 398.25 224.1"><path d="M87.34,98.12H80.59V64.37H73.84V57.62h13.5v6.75h6.75v6.75h13.5V57.62h-6.75V50.87h13.5v6.75h6.75V91.37H87.34Zm20.25-13.5V77.87H94.09v6.75Zm47.25,54h-6.75v-27H114.34v6.75h-6.75v-6.75h-6.75v-6.75h60.75v27h-6.75Zm-13.5-40.5h-6.75V57.62h-6.75V50.87h13.5v6.75h6.75v6.75h6.75V50.87h-6.75V44.12h13.5v6.75h6.75v40.5h-6.75v6.75h-6.75v-27h-6.75V91.37h-6.75Z" transform="translate(-73.84 -44.12)"/><path d="M235.84,91.37v13.5h-6.75v6.75h-6.75V91.37h-27v6.75h-6.75V91.37h-6.75V84.62h27v-27h-6.75V50.87h54v13.5h-6.75v6.75h6.75v6.75h-40.5v6.75h47.25V77.87h6.75v6.75h6.75v6.75Zm-20.25,47.25v-6.75h-6.75V111.62h-6.75v-6.75h13.5v6.75h6.75v20.25h27v-6.75h6.75v6.75h6.75v6.75Zm27-67.5V57.62H222.34v13.5Z" transform="translate(-73.84 -44.12)"/><path d="M296.59,104.87V98.12h-6.75V77.87h6.75V71.12h6.75V64.37h20.25v6.75h6.75v6.75h6.75V98.12h-6.75v6.75h-6.75v6.75H303.34v-6.75Zm20.25,0V98.12h6.75V77.87h-6.75V71.12h-6.75v6.75h-6.75V98.12h6.75v6.75Zm54,33.75h-6.75V50.87h-6.75V44.12h13.5v6.75h6.75v81h-6.75Z" transform="translate(-73.84 -44.12)"/><path d="M451.84,244.6v13.5h-13.5V244.6Z" transform="translate(-73.84 -44.12)"/><path d="M100.84,268.22v-6.75H94.09V248h40.5v-6.75H94.09v-6.75h20.25V221h-27v6.75H80.59V221H73.84v-6.75h27V180.47H94.09v-6.75h13.5v6.75h6.75v6.75h20.25v-6.75h-6.75v-6.75h13.5v6.75h6.75v20.25h-6.75v6.75H107.59v6.75h47.25v-6.75h6.75v6.75h6.75V221h-40.5v13.5h20.25V248h-6.75v6.75H107.59v6.75h33.75v-6.75h6.75v6.75h6.75v6.75Zm33.75-67.5V194H114.34v6.75Z" transform="translate(-73.84 -44.12)"/><path d="M262.84,268.22h-6.75v-40.5H222.34v6.75h-6.75v6.75H195.34v-6.75h-6.75v-6.75h-6.75V207.47h6.75v-6.75h6.75V194h20.25v6.75h6.75v6.75h6.75v-6.75h27V180.47h-6.75v-6.75h13.5v6.75h6.75v81h-6.75Zm-54-33.75v-6.75h6.75V207.47h-6.75v-6.75h-6.75v6.75h-6.75v20.25h6.75v6.75ZM256.09,221v-13.5h-27V221Z" transform="translate(-73.84 -44.12)"/><path d="M296.59,214.22V194h6.75v-6.75h27V194h6.75v20.25h-6.75V221h-27v-6.75Zm27,0V194h-13.5v20.25Zm6.75,54v-6.75h-6.75V248h40.5v-6.75h-40.5v-6.75h54v6.75h-6.75v13.5H337.09v6.75h40.5v6.75Zm40.5-40.5h-6.75V180.47h-6.75v-6.75h13.5v6.75h6.75V221h-6.75Z" transform="translate(-73.84 -44.12)"/><path d="M424.84,234.47v-6.75h-6.75v-27h-6.75V194h47.25v-6.75h6.75V194h6.75v6.75h-40.5v6.75h33.75v6.75H431.59v13.5h27V221h6.75v6.75h6.75v6.75Z" transform="translate(-73.84 -44.12)"/></svg>